<?xml version="1.0" encoding="utf-8"?>
<!-- Generator: Adobe Illustrator 22.0.1, SVG Export Plug-In . SVG Version: 6.00 Build 0)  -->
<svg version="1.1" id="Слой_1" xmlns="http://www.w3.org/2000/svg" xmlns:xlink="http://www.w3.org/1999/xlink" x="0px" y="0px"
	 viewBox="0 0 1369 407" style="enable-background:new 0 0 1369 407;" xml:space="preserve">
<style type="text/css">
	.st0{enable-background:new    ;}
	.st1{fill:#DD3D53;}
	.st2{fill:#222222;}
</style>
<g class="st0">
	<path class="st1" d="M306.1,306l0.3,0.6c-5.5,15.7-14.8,27.8-27.8,36.2c-13,8.4-30.3,12.6-51.9,12.6c-21.1,0-38-5.6-50.8-16.9
		c-12.8-11.3-16.9-25.3-12.1-41.9l7.9-28.1c5.2-18.5,15.1-32.9,29.7-43c14.7-10.1,32.8-15.2,54.6-15.2c21.4,0,38.1,4.6,49.9,13.8
		c11.9,9.2,16.4,21.4,13.6,36.6l-0.3,0.5h-38.3c1.8-9.4,0.5-16.6-4.1-21.6c-4.5-5-12.7-7.5-24.6-7.5c-9.7,0-18.3,3.4-25.9,10.1
		c-7.6,6.7-12.8,15.4-15.7,26.1l-8,28.3c-3.3,11.4-2.5,20.4,2.4,27.1c4.8,6.7,13,10,24.4,10c10.1,0,18.3-2.2,24.4-6.7
		c6.1-4.5,10.9-11.4,14.5-20.8H306.1z"/>
	<path class="st1" d="M385.2,353.3c-0.5-1.9-1-3.9-1.2-6c-0.3-2.1-0.4-4.2-0.4-6.3c-5.3,4.3-11.4,7.7-18.1,10.4
		c-6.7,2.6-13.9,4-21.6,4c-12.5,0-22.1-2.9-28.9-8.7c-6.8-5.8-8.8-13.4-6.1-22.9c3.1-10.9,10.4-19.1,21.9-24.4
		c11.5-5.3,27.4-8,47.6-8h17.6l2.3-8.3c1.4-5.4,1-9.4-1.4-12c-2.4-2.6-6.7-3.9-13-3.9c-5.2,0-9.8,1.1-13.6,3.4
		c-3.8,2.3-6.2,5.3-7.2,9.2l-37.6-0.1l-0.3-0.6c2.2-9.5,9.4-17.3,21.7-23.4c12.3-6.1,27.4-9.2,45.2-9.2c15.5,0,27.7,3.2,36.7,9.7
		c9,6.5,11.9,15.5,8.8,27l-12.2,43.3c-1.5,5.3-2.4,10-2.5,14.2c-0.1,4.1,0.3,8.3,1.3,12.6H385.2z M360.5,334.4
		c4.7,0,9.4-0.9,14.2-2.7c4.8-1.8,8.7-4,11.9-6.6l5-17.7H374c-6.7,0-12.4,1.5-17.1,4.6c-4.7,3-7.6,6.7-8.7,10.9
		c-1.1,3.7-0.5,6.6,1.6,8.6C352,333.4,355.6,334.4,360.5,334.4z"/>
</g>
<g class="st0">
	<path class="st2" d="M482.8,331.5h80.9l-6.1,21.8h-120l39.5-141.2h39.1L482.8,331.5z"/>
	<path class="st2" d="M628.6,355.3c-19.3,0-33.9-4.9-44-14.6c-10-9.8-13.3-22-9.9-36.8l0.8-3.9c3.6-16.2,12.1-29.2,25.3-39
		c13.3-9.8,29.4-14.6,48.5-14.5c18,0,31.3,4.3,39.9,12.9c8.6,8.6,11.3,20.1,8.1,34.5l-3.4,15.4h-81.2c-0.7,7.4,1,13.3,5,17.7
		c4.1,4.4,10.6,6.6,19.7,6.6c7.6,0,14.3-0.6,20.2-1.9c5.9-1.3,12.3-3.3,19.1-5.9l6.7,17.5c-6.2,3.4-14.2,6.3-23.8,8.7
		C650.1,354.1,639.7,355.3,628.6,355.3z M644.5,268.3c-6.2,0-11.5,2-16.1,6.1c-4.6,4-8,9.3-10.2,15.8l0.3,0.5h41.5l0.5-2.5
		c1.4-6.3,0.8-11.1-1.7-14.6C656.3,270,651.5,268.3,644.5,268.3z"/>
	<path class="st2" d="M772.9,353.3c-0.5-1.9-1-3.9-1.2-6c-0.3-2.1-0.4-4.2-0.4-6.3c-5.3,4.3-11.4,7.7-18.1,10.4
		c-6.7,2.6-13.9,4-21.6,4c-12.5,0-22.1-2.9-28.9-8.7c-6.8-5.8-8.8-13.4-6.1-22.9c3.1-10.9,10.4-19.1,21.9-24.4
		c11.5-5.3,27.4-8,47.6-8h17.6l2.3-8.3c1.4-5.4,1-9.4-1.4-12c-2.4-2.6-6.7-3.9-13-3.9c-5.2,0-9.8,1.1-13.6,3.4
		c-3.8,2.3-6.2,5.3-7.2,9.2l-37.6-0.1L713,279c2.2-9.5,9.4-17.3,21.7-23.4c12.3-6.1,27.4-9.2,45.2-9.2c15.5,0,27.7,3.2,36.7,9.7
		c9,6.5,11.9,15.5,8.8,27l-12.2,43.3c-1.5,5.3-2.4,10-2.5,14.2c-0.1,4.1,0.3,8.3,1.3,12.6H772.9z M748.2,334.4
		c4.7,0,9.4-0.9,14.2-2.7c4.8-1.8,8.7-4,11.9-6.6l5-17.7h-17.6c-6.7,0-12.4,1.5-17.1,4.6c-4.7,3-7.6,6.7-8.7,10.9
		c-1.1,3.7-0.5,6.6,1.6,8.6C739.6,333.4,743.2,334.4,748.2,334.4z"/>
	<path class="st2" d="M832.1,299.8c5-17.6,12.9-30.9,23.8-39.9c10.9-9,24.9-13.4,42.1-13.4c6.3,0,12.2,1,17.6,3
		c5.4,2,9.9,4.9,13.6,8.5l15.6-55.9H984l-42.3,151.2h-33.9l0.4-10.3c-5.2,4-10.9,7-16.8,9.1c-6,2.1-12.3,3.2-18.9,3.2
		c-15.7,0-27.6-5.1-35.4-15.4s-9.7-23-5.4-38.1L832.1,299.8z M870.6,301.8c-2.8,9.9-3,17.7-0.7,23.3c2.4,5.6,7.9,8.4,16.7,8.4
		c4.5,0,8.9-1,13-2.9c4.2-2,8-4.7,11.4-8.2l12.8-45.8c-1.6-2.7-4.1-4.7-7.5-6.1c-3.3-1.4-7.5-2.1-12.4-2.1c-8.1,0-14.9,2.8-20.5,8.5
		c-5.6,5.7-9.7,13.3-12.4,23L870.6,301.8z"/>
	<path class="st2" d="M1022.8,355.3c-19.3,0-33.9-4.9-44-14.6c-10-9.8-13.3-22-9.9-36.8l0.8-3.9c3.6-16.2,12.1-29.2,25.3-39
		c13.3-9.8,29.4-14.6,48.5-14.5c18,0,31.3,4.3,39.9,12.9c8.6,8.6,11.3,20.1,8.1,34.5l-3.4,15.4h-81.2c-0.7,7.4,1,13.3,5,17.7
		c4.1,4.4,10.6,6.6,19.7,6.6c7.6,0,14.3-0.6,20.2-1.9c5.9-1.3,12.3-3.3,19.1-5.9l6.7,17.5c-6.2,3.4-14.2,6.3-23.8,8.7
		C1044.3,354.1,1033.9,355.3,1022.8,355.3z M1038.7,268.3c-6.2,0-11.5,2-16.1,6.1c-4.6,4-8,9.3-10.2,15.8l0.3,0.5h41.5l0.5-2.5
		c1.4-6.3,0.8-11.1-1.7-14.6C1050.5,270,1045.7,268.3,1038.7,268.3z"/>
	<path class="st2" d="M1184.3,273.4l-15.6-0.3c-4.8,0-9.1,0.8-12.8,2.5c-3.8,1.6-6.9,4-9.6,7l-19.8,70.7h-39l29.3-104.9h36.4
		l-2.2,13.5l0.7,0.3c4.1-5,8.9-8.8,14.5-11.6c5.6-2.7,11.6-4.1,18.1-4.1c1.8,0,3.8,0.1,6,0.3c2.2,0.2,3.9,0.5,5.3,0.8L1184.3,273.4z
		"/>
</g>
<path class="st2" d="M444.6,139.2c9.7,3,19.3,6.2,29.1,9c46.5,13.4,93.9,21.5,142.5,20.4c18.6-0.4,37.3-2.7,55.9-4.5
	c27.6-2.6,55.2-5.6,82.8-8.3c29.8-2.9,59.6-5.7,89.4-8.5c26.5-2.5,52.9-4.9,79.4-7.3c0.7-0.1,1.3-0.2,2.1-0.9
	c-6.6-2.2-13.2-4.4-19.8-6.5c-54-17.7-108.3-34.1-163.8-46.5C696.8,76,651,68.9,604.2,70.7c-35.7,1.3-71.1,6-105.6,14.8
	c-59.4,15-118.4,31.2-177.6,47.1c-34.5,9.3-69,18.6-103.3,28.6c-23.4,6.8-46.1,15.9-66.9,28.9c-9,5.6-17.3,12-23.9,20.4
	c-10.2,13.1-11.9,26.9-3.3,41.5c0.2,0.4,0.4,0.8,0.6,1.2c0,0.1-0.1,0.2-0.4,0.8c-9.9-12.9-19.4-25.9-21.8-42.3
	c-1.6-10.4,3.4-19.1,9.2-27.1c3.1-4.3,7.3-7.9,11-11.9c6.6-7.1,7.4-11.2,1.7-18.9c-6.5-8.8-14-16.8-21-25.2
	c-2.3-2.8-4.9-5.4-6.9-8.5c-1.3-1.9-1.8-4.4-2.7-6.6c2.2-0.5,4.4-1.5,6.6-1.4c7.7,0.4,15.4,1.1,23.1,1.9c30.6,3.2,61.2,6.8,91.9,9.7
	c25.2,2.5,49.7-2.5,74-8.6c48.6-12.3,97.2-25.1,145.9-36.8c50.6-12.1,101.8-20.8,153.6-25.7c24.7-2.3,49.3-1.4,73.9,1.1
	c96,9.7,188.1,35.8,279.3,65.6c19.1,6.2,38,13.4,57.1,19.5c6.1,2,12.8,2.3,19.3,2.8c49.8,3.7,98.9,10.9,146.9,24.7
	c27.1,7.8,53.6,17.6,77,33.8c9.1,6.4,17,14.5,25.2,22.2c2.6,2.4,4.1,5.9,5.4,9.6c-0.9-0.5-1.9-0.8-2.7-1.4
	c-46.3-33.8-98.3-52.8-155-60.2c-75.2-9.8-150.6-14.9-226.4-11.6c-47.4,2-94.7,5.7-142.1,9.1c-33.8,2.4-67.5,6.5-101.3,8.5
	c-42.1,2.5-83.7-1.8-124.8-11.4c-24.6-5.7-48.7-13.3-71.9-23.3c-1.4-0.6-2.8-1.3-4.2-2C444.4,139.6,444.5,139.4,444.6,139.2z"/>
</svg>
